<svg width="416" height="185" viewBox="0 0 416 185" fill="none" xmlns="http://www.w3.org/2000/svg">
<rect x="48.4902" y="2.99878" width="365" height="132" rx="18" fill="white" stroke="black" stroke-width="4"/>
<path d="M106.954 25.3288V45.9988H104.104V25.3288H106.954ZM138.802 30.1888L135.202 45.9988H131.452L128.692 32.6788L125.842 45.9988H122.182L118.492 30.1888H121.252L124.102 44.0788L127.222 30.1888H130.312L133.282 44.0788L136.162 30.1888H138.802ZM145.006 30.1888V45.9988H142.246V30.1888H145.006ZM143.596 22.5988C144.176 22.5988 144.646 22.7788 145.006 23.1388C145.366 23.4988 145.546 23.9488 145.546 24.4888C145.546 25.0288 145.366 25.4788 145.006 25.8388C144.646 26.1788 144.176 26.3488 143.596 26.3488C143.036 26.3488 142.576 26.1788 142.216 25.8388C141.856 25.4788 141.676 25.0288 141.676 24.4888C141.676 23.9488 141.856 23.4988 142.216 23.1388C142.576 22.7788 143.036 22.5988 143.596 22.5988ZM155.002 29.8288C156.082 29.8288 157.052 29.9788 157.912 30.2788C158.772 30.5788 159.592 31.0288 160.372 31.6288L159.202 33.3688C158.482 32.9088 157.792 32.5688 157.132 32.3488C156.492 32.1288 155.812 32.0188 155.092 32.0188C154.192 32.0188 153.482 32.2088 152.962 32.5888C152.442 32.9488 152.182 33.4488 152.182 34.0888C152.182 34.7288 152.422 35.2288 152.902 35.5888C153.402 35.9488 154.292 36.2988 155.572 36.6388C157.332 37.0788 158.642 37.6788 159.502 38.4388C160.382 39.1988 160.822 40.2388 160.822 41.5588C160.822 43.1188 160.212 44.3088 158.992 45.1288C157.792 45.9488 156.322 46.3588 154.582 46.3588C152.182 46.3588 150.192 45.6688 148.612 44.2888L150.082 42.6088C151.422 43.6288 152.902 44.1388 154.522 44.1388C155.562 44.1388 156.382 43.9288 156.982 43.5088C157.602 43.0688 157.912 42.4788 157.912 41.7388C157.912 41.1988 157.802 40.7688 157.582 40.4488C157.362 40.1088 156.982 39.8188 156.442 39.5788C155.902 39.3188 155.112 39.0488 154.072 38.7688C152.392 38.3288 151.172 37.7388 150.412 36.9988C149.672 36.2588 149.302 35.3188 149.302 34.1788C149.302 33.3588 149.542 32.6188 150.022 31.9588C150.522 31.2788 151.202 30.7588 152.062 30.3988C152.942 30.0188 153.922 29.8288 155.002 29.8288ZM172.156 29.8288C173.596 29.8288 174.716 30.2588 175.516 31.1188C176.336 31.9788 176.746 33.1588 176.746 34.6588V45.9988H173.986V35.0488C173.986 33.9288 173.766 33.1388 173.326 32.6788C172.906 32.2188 172.286 31.9888 171.466 31.9888C170.646 31.9888 169.916 32.2288 169.276 32.7088C168.636 33.1888 168.036 33.8688 167.476 34.7488V45.9988H164.716V23.8588L167.476 23.5588V32.3788C168.716 30.6788 170.276 29.8288 172.156 29.8288ZM193.234 25.3288V45.9988H190.384V25.3288H193.234ZM212.781 29.8288C213.721 29.8288 214.581 29.9688 215.361 30.2488C216.141 30.5088 216.891 30.9388 217.611 31.5388L216.291 33.2788C215.731 32.8788 215.181 32.5888 214.641 32.4088C214.121 32.2088 213.541 32.1088 212.901 32.1088C211.621 32.1088 210.621 32.6188 209.901 33.6388C209.201 34.6588 208.851 36.1688 208.851 38.1688C208.851 40.1688 209.201 41.6488 209.901 42.6088C210.601 43.5488 211.601 44.0188 212.901 44.0188C213.521 44.0188 214.091 43.9288 214.611 43.7488C215.131 43.5488 215.711 43.2388 216.351 42.8188L217.611 44.6188C216.171 45.7788 214.561 46.3588 212.781 46.3588C210.641 46.3588 208.951 45.6388 207.711 44.1988C206.491 42.7588 205.881 40.7688 205.881 38.2288C205.881 36.5488 206.161 35.0788 206.721 33.8188C207.281 32.5588 208.071 31.5788 209.091 30.8788C210.131 30.1788 211.361 29.8288 212.781 29.8288ZM226.701 29.8288C228.921 29.8288 230.641 30.5688 231.861 32.0488C233.101 33.5288 233.721 35.5388 233.721 38.0788C233.721 39.7188 233.441 41.1688 232.881 42.4288C232.321 43.6688 231.511 44.6388 230.451 45.3388C229.391 46.0188 228.131 46.3588 226.671 46.3588C224.451 46.3588 222.721 45.6188 221.481 44.1388C220.241 42.6588 219.621 40.6488 219.621 38.1088C219.621 36.4688 219.901 35.0288 220.461 33.7888C221.021 32.5288 221.831 31.5588 222.891 30.8788C223.951 30.1788 225.221 29.8288 226.701 29.8288ZM226.701 32.0488C223.961 32.0488 222.591 34.0688 222.591 38.1088C222.591 42.1288 223.951 44.1388 226.671 44.1388C229.391 44.1388 230.751 42.1188 230.751 38.0788C230.751 34.0588 229.401 32.0488 226.701 32.0488ZM250.041 45.9988H247.671L247.461 43.5388C246.861 44.5188 246.171 45.2388 245.391 45.6988C244.611 46.1388 243.661 46.3588 242.541 46.3588C241.161 46.3588 240.081 45.9388 239.301 45.0988C238.521 44.2588 238.131 43.0688 238.131 41.5288V30.1888H240.891V41.2288C240.891 42.3088 241.081 43.0788 241.461 43.5388C241.841 43.9788 242.461 44.1988 243.321 44.1988C244.861 44.1988 246.181 43.2888 247.281 41.4688V30.1888H250.041V45.9988ZM258.892 46.3588C257.872 46.3588 257.062 46.0588 256.462 45.4588C255.882 44.8388 255.592 43.9788 255.592 42.8788V23.8288L258.352 23.4988V42.8188C258.352 43.2588 258.422 43.5788 258.562 43.7788C258.722 43.9788 258.982 44.0788 259.342 44.0788C259.722 44.0788 260.062 44.0188 260.362 43.8988L261.082 45.8188C260.422 46.1788 259.692 46.3588 258.892 46.3588ZM276.624 23.8288V45.9988H274.194L273.924 43.8088C273.404 44.6088 272.754 45.2388 271.974 45.6988C271.194 46.1388 270.324 46.3588 269.364 46.3588C267.484 46.3588 266.014 45.6188 264.954 44.1388C263.914 42.6588 263.394 40.6688 263.394 38.1688C263.394 36.5488 263.644 35.1088 264.144 33.8488C264.644 32.5888 265.364 31.6088 266.304 30.9088C267.244 30.1888 268.344 29.8288 269.604 29.8288C271.224 29.8288 272.644 30.4788 273.864 31.7788V23.4988L276.624 23.8288ZM269.964 44.1688C270.804 44.1688 271.524 43.9788 272.124 43.5988C272.724 43.1988 273.304 42.6088 273.864 41.8288V34.0888C273.344 33.4088 272.784 32.8988 272.184 32.5588C271.604 32.1988 270.944 32.0188 270.204 32.0188C268.984 32.0188 268.034 32.5288 267.354 33.5488C266.694 34.5688 266.364 36.0888 266.364 38.1088C266.364 40.1488 266.674 41.6688 267.294 42.6688C267.914 43.6688 268.804 44.1688 269.964 44.1688ZM306.123 29.8288C307.423 29.8288 308.463 30.2688 309.243 31.1488C310.023 32.0088 310.413 33.1788 310.413 34.6588V45.9988H307.653V35.0488C307.653 33.0088 306.913 31.9888 305.433 31.9888C304.653 31.9888 303.993 32.2188 303.453 32.6788C302.913 33.1188 302.333 33.8188 301.713 34.7788V45.9988H298.953V35.0488C298.953 33.0088 298.213 31.9888 296.733 31.9888C295.933 31.9888 295.263 32.2188 294.723 32.6788C294.183 33.1388 293.613 33.8388 293.013 34.7788V45.9988H290.253V30.1888H292.623L292.863 32.4988C294.043 30.7188 295.563 29.8288 297.423 29.8288C298.403 29.8288 299.233 30.0788 299.913 30.5788C300.613 31.0788 301.113 31.7788 301.413 32.6788C302.033 31.7588 302.713 31.0588 303.453 30.5788C304.213 30.0788 305.103 29.8288 306.123 29.8288ZM326.626 42.3088C326.626 42.9488 326.736 43.4288 326.956 43.7488C327.176 44.0488 327.506 44.2788 327.946 44.4388L327.316 46.3588C326.496 46.2588 325.836 46.0288 325.336 45.6688C324.836 45.3088 324.466 44.7488 324.226 43.9888C323.166 45.5688 321.596 46.3588 319.516 46.3588C317.956 46.3588 316.726 45.9188 315.826 45.0388C314.926 44.1588 314.476 43.0088 314.476 41.5888C314.476 39.9088 315.076 38.6188 316.276 37.7188C317.496 36.8188 319.216 36.3688 321.436 36.3688H323.866V35.1988C323.866 34.0788 323.596 33.2788 323.056 32.7988C322.516 32.3188 321.686 32.0788 320.566 32.0788C319.406 32.0788 317.986 32.3588 316.306 32.9188L315.616 30.9088C317.576 30.1888 319.396 29.8288 321.076 29.8288C322.936 29.8288 324.326 30.2888 325.246 31.2088C326.166 32.1088 326.626 33.3988 326.626 35.0788V42.3088ZM320.146 44.2888C321.726 44.2888 322.966 43.4688 323.866 41.8288V38.1988H321.796C318.876 38.1988 317.416 39.2788 317.416 41.4388C317.416 42.3788 317.646 43.0888 318.106 43.5688C318.566 44.0488 319.246 44.2888 320.146 44.2888ZM335.054 23.4988V45.9988H332.294V23.8288L335.054 23.4988ZM344.144 30.1888L338.324 37.1788L344.804 45.9988H341.504L335.234 37.3588L341.054 30.1888H344.144ZM359.322 37.6288C359.322 38.0888 359.302 38.5588 359.262 39.0388H349.182C349.302 40.7788 349.742 42.0588 350.502 42.8788C351.262 43.6988 352.242 44.1088 353.442 44.1088C354.202 44.1088 354.902 43.9988 355.542 43.7788C356.182 43.5588 356.852 43.2088 357.552 42.7288L358.752 44.3788C357.072 45.6988 355.232 46.3588 353.232 46.3588C351.032 46.3588 349.312 45.6388 348.072 44.1988C346.852 42.7588 346.242 40.7788 346.242 38.2588C346.242 36.6188 346.502 35.1688 347.022 33.9088C347.562 32.6288 348.322 31.6288 349.302 30.9088C350.302 30.1888 351.472 29.8288 352.812 29.8288C354.912 29.8288 356.522 30.5188 357.642 31.8988C358.762 33.2788 359.322 35.1888 359.322 37.6288ZM356.592 36.8188C356.592 35.2588 356.282 34.0688 355.662 33.2488C355.042 32.4288 354.112 32.0188 352.872 32.0188C350.612 32.0188 349.382 33.6788 349.182 36.9988H356.592V36.8188ZM160.802 81.2788C159.762 81.9988 158.582 82.3588 157.262 82.3588C155.922 82.3588 154.872 81.9788 154.112 81.2188C153.372 80.4388 153.002 79.3188 153.002 77.8588V68.3188H150.242V66.1888H153.002V62.6188L155.762 62.2888V66.1888H159.512L159.212 68.3188H155.762V77.7388C155.762 78.5588 155.902 79.1588 156.182 79.5388C156.482 79.8988 156.972 80.0788 157.652 80.0788C158.272 80.0788 158.972 79.8688 159.752 79.4488L160.802 81.2788ZM171.102 65.8288C172.542 65.8288 173.662 66.2588 174.462 67.1188C175.282 67.9788 175.692 69.1588 175.692 70.6588V81.9988H172.932V71.0488C172.932 69.9288 172.712 69.1388 172.272 68.6788C171.852 68.2188 171.232 67.9888 170.412 67.9888C169.592 67.9888 168.862 68.2288 168.222 68.7088C167.582 69.1888 166.982 69.8688 166.422 70.7488V81.9988H163.662V59.8588L166.422 59.5588V68.3788C167.662 66.6788 169.222 65.8288 171.102 65.8288ZM184 66.1888V81.9988H181.24V66.1888H184ZM182.59 58.5988C183.17 58.5988 183.64 58.7788 184 59.1388C184.36 59.4988 184.54 59.9488 184.54 60.4888C184.54 61.0288 184.36 61.4788 184 61.8388C183.64 62.1788 183.17 62.3488 182.59 62.3488C182.03 62.3488 181.57 62.1788 181.21 61.8388C180.85 61.4788 180.67 61.0288 180.67 60.4888C180.67 59.9488 180.85 59.4988 181.21 59.1388C181.57 58.7788 182.03 58.5988 182.59 58.5988ZM197.146 65.8288C198.586 65.8288 199.706 66.2588 200.506 67.1188C201.326 67.9788 201.736 69.1588 201.736 70.6588V81.9988H198.976V71.0488C198.976 69.9288 198.766 69.1388 198.346 68.6788C197.926 68.2188 197.306 67.9888 196.486 67.9888C195.646 67.9888 194.906 68.2288 194.266 68.7088C193.626 69.1888 193.026 69.8788 192.466 70.7788V81.9988H189.706V66.1888H192.076L192.316 68.5288C192.876 67.6888 193.566 67.0288 194.386 66.5488C195.226 66.0688 196.146 65.8288 197.146 65.8288ZM220.035 66.9088C219.435 67.1088 218.775 67.2388 218.055 67.2988C217.335 67.3588 216.455 67.3888 215.415 67.3888C217.275 68.2288 218.205 69.5588 218.205 71.3788C218.205 72.9588 217.665 74.2488 216.585 75.2488C215.505 76.2488 214.035 76.7488 212.175 76.7488C211.455 76.7488 210.785 76.6488 210.165 76.4488C209.925 76.6088 209.735 76.8288 209.595 77.1088C209.455 77.3688 209.385 77.6388 209.385 77.9188C209.385 78.7788 210.075 79.2088 211.455 79.2088H213.975C215.035 79.2088 215.975 79.3988 216.795 79.7788C217.615 80.1588 218.245 80.6788 218.685 81.3388C219.145 81.9988 219.375 82.7488 219.375 83.5888C219.375 85.1288 218.745 86.3088 217.485 87.1288C216.225 87.9688 214.385 88.3888 211.965 88.3888C210.265 88.3888 208.915 88.2088 207.915 87.8488C206.935 87.5088 206.235 86.9888 205.815 86.2888C205.395 85.5888 205.185 84.6888 205.185 83.5888H207.675C207.675 84.2288 207.795 84.7288 208.035 85.0888C208.275 85.4688 208.705 85.7488 209.325 85.9288C209.945 86.1288 210.825 86.2288 211.965 86.2288C213.625 86.2288 214.805 86.0188 215.505 85.5988C216.225 85.1988 216.585 84.5888 216.585 83.7688C216.585 83.0288 216.305 82.4688 215.745 82.0888C215.185 81.7088 214.405 81.5188 213.405 81.5188H210.915C209.575 81.5188 208.555 81.2388 207.855 80.6788C207.175 80.0988 206.835 79.3788 206.835 78.5188C206.835 77.9988 206.985 77.4988 207.285 77.0188C207.585 76.5388 208.015 76.1088 208.575 75.7288C207.655 75.2488 206.975 74.6588 206.535 73.9588C206.115 73.2388 205.905 72.3688 205.905 71.3488C205.905 70.2888 206.165 69.3388 206.685 68.4988C207.225 67.6588 207.955 67.0088 208.875 66.5488C209.815 66.0688 210.855 65.8288 211.995 65.8288C213.235 65.8488 214.275 65.8088 215.115 65.7088C215.955 65.5888 216.645 65.4388 217.185 65.2588C217.745 65.0588 218.425 64.7788 219.225 64.4188L220.035 66.9088ZM211.995 67.8088C210.955 67.8088 210.145 68.1388 209.565 68.7988C209.005 69.4388 208.725 70.2888 208.725 71.3488C208.725 72.4288 209.015 73.2988 209.595 73.9588C210.175 74.5988 210.995 74.9188 212.055 74.9188C213.135 74.9188 213.955 74.6088 214.515 73.9888C215.095 73.3488 215.385 72.4588 215.385 71.3188C215.385 68.9788 214.255 67.8088 211.995 67.8088ZM226.955 65.8288C228.035 65.8288 229.005 65.9788 229.865 66.2788C230.725 66.5788 231.545 67.0288 232.325 67.6288L231.155 69.3688C230.435 68.9088 229.745 68.5688 229.085 68.3488C228.445 68.1288 227.765 68.0188 227.045 68.0188C226.145 68.0188 225.435 68.2088 224.915 68.5888C224.395 68.9488 224.135 69.4488 224.135 70.0888C224.135 70.7288 224.375 71.2288 224.855 71.5888C225.355 71.9488 226.245 72.2988 227.525 72.6388C229.285 73.0788 230.595 73.6788 231.455 74.4388C232.335 75.1988 232.775 76.2388 232.775 77.5588C232.775 79.1188 232.165 80.3088 230.945 81.1288C229.745 81.9488 228.275 82.3588 226.535 82.3588C224.135 82.3588 222.145 81.6688 220.565 80.2888L222.035 78.6088C223.375 79.6288 224.855 80.1388 226.475 80.1388C227.515 80.1388 228.335 79.9288 228.935 79.5088C229.555 79.0688 229.865 78.4788 229.865 77.7388C229.865 77.1988 229.755 76.7688 229.535 76.4488C229.315 76.1088 228.935 75.8188 228.395 75.5788C227.855 75.3188 227.065 75.0488 226.025 74.7688C224.345 74.3288 223.125 73.7388 222.365 72.9988C221.625 72.2588 221.255 71.3188 221.255 70.1788C221.255 69.3588 221.495 68.6188 221.975 67.9588C222.475 67.2788 223.155 66.7588 224.015 66.3988C224.895 66.0188 225.875 65.8288 226.955 65.8288ZM260.479 65.8288C261.779 65.8288 262.819 66.2688 263.599 67.1488C264.379 68.0088 264.769 69.1788 264.769 70.6588V81.9988H262.009V71.0488C262.009 69.0088 261.269 67.9888 259.789 67.9888C259.009 67.9888 258.349 68.2188 257.809 68.6788C257.269 69.1188 256.689 69.8188 256.069 70.7788V81.9988H253.309V71.0488C253.309 69.0088 252.569 67.9888 251.089 67.9888C250.289 67.9888 249.619 68.2188 249.079 68.6788C248.539 69.1388 247.969 69.8388 247.369 70.7788V81.9988H244.609V66.1888H246.979L247.219 68.4988C248.399 66.7188 249.919 65.8288 251.779 65.8288C252.759 65.8288 253.589 66.0788 254.269 66.5788C254.969 67.0788 255.469 67.7788 255.769 68.6788C256.389 67.7588 257.069 67.0588 257.809 66.5788C258.569 66.0788 259.459 65.8288 260.479 65.8288ZM276.271 65.8288C278.491 65.8288 280.211 66.5688 281.431 68.0488C282.671 69.5288 283.291 71.5388 283.291 74.0788C283.291 75.7188 283.011 77.1688 282.451 78.4288C281.891 79.6688 281.081 80.6388 280.021 81.3388C278.961 82.0188 277.701 82.3588 276.241 82.3588C274.021 82.3588 272.291 81.6188 271.051 80.1388C269.811 78.6588 269.191 76.6488 269.191 74.1088C269.191 72.4688 269.471 71.0288 270.031 69.7888C270.591 68.5288 271.401 67.5588 272.461 66.8788C273.521 66.1788 274.791 65.8288 276.271 65.8288ZM276.271 68.0488C273.531 68.0488 272.161 70.0688 272.161 74.1088C272.161 78.1288 273.521 80.1388 276.241 80.1388C278.961 80.1388 280.321 78.1188 280.321 74.0788C280.321 70.0588 278.971 68.0488 276.271 68.0488ZM294.721 65.8288C295.281 65.8288 295.801 65.8888 296.281 66.0088L295.771 68.7088C295.291 68.5888 294.831 68.5288 294.391 68.5288C293.411 68.5288 292.621 68.8888 292.021 69.6088C291.421 70.3288 290.951 71.4488 290.611 72.9688V81.9988H287.851V66.1888H290.221L290.491 69.3988C290.911 68.2188 291.481 67.3288 292.201 66.7288C292.921 66.1288 293.761 65.8288 294.721 65.8288ZM310.455 73.6288C310.455 74.0888 310.435 74.5588 310.395 75.0388H300.315C300.435 76.7788 300.875 78.0588 301.635 78.8788C302.395 79.6988 303.375 80.1088 304.575 80.1088C305.335 80.1088 306.035 79.9988 306.675 79.7788C307.315 79.5588 307.985 79.2088 308.685 78.7288L309.885 80.3788C308.205 81.6988 306.365 82.3588 304.365 82.3588C302.165 82.3588 300.445 81.6388 299.205 80.1988C297.985 78.7588 297.375 76.7788 297.375 74.2588C297.375 72.6188 297.635 71.1688 298.155 69.9088C298.695 68.6288 299.455 67.6288 300.435 66.9088C301.435 66.1888 302.605 65.8288 303.945 65.8288C306.045 65.8288 307.655 66.5188 308.775 67.8988C309.895 69.2788 310.455 71.1888 310.455 73.6288ZM307.725 72.8188C307.725 71.2588 307.415 70.0688 306.795 69.2488C306.175 68.4288 305.245 68.0188 304.005 68.0188C301.745 68.0188 300.515 69.6788 300.315 72.9988H307.725V72.8188ZM190.177 109.629C190.177 110.089 190.157 110.559 190.117 111.039H180.037C180.157 112.779 180.597 114.059 181.357 114.879C182.117 115.699 183.097 116.109 184.297 116.109C185.057 116.109 185.757 115.999 186.397 115.779C187.037 115.559 187.707 115.209 188.407 114.729L189.607 116.379C187.927 117.699 186.087 118.359 184.087 118.359C181.887 118.359 180.167 117.639 178.927 116.199C177.707 114.759 177.097 112.779 177.097 110.259C177.097 108.619 177.357 107.169 177.877 105.909C178.417 104.629 179.177 103.629 180.157 102.909C181.157 102.189 182.327 101.829 183.667 101.829C185.767 101.829 187.377 102.519 188.497 103.899C189.617 105.279 190.177 107.189 190.177 109.629ZM187.447 108.819C187.447 107.259 187.137 106.069 186.517 105.249C185.897 104.429 184.967 104.019 183.727 104.019C181.467 104.019 180.237 105.679 180.037 108.999H187.447V108.819ZM199.954 97.7188C199.114 97.7188 198.514 97.9088 198.154 98.2888C197.794 98.6488 197.614 99.2188 197.614 99.9988V102.189H201.454L201.154 104.319H197.614V117.999H194.854V104.319H192.034V102.189H194.854V100.029C194.854 98.6688 195.284 97.5788 196.144 96.7588C197.024 95.9188 198.244 95.4988 199.804 95.4988C200.524 95.4988 201.164 95.5688 201.724 95.7088C202.304 95.8288 202.924 96.0288 203.584 96.3088L202.714 98.3188C201.814 97.9188 200.894 97.7188 199.954 97.7188ZM210.063 95.4988C210.903 95.4988 211.663 95.5888 212.343 95.7688C213.043 95.9488 213.743 96.2188 214.443 96.5788L213.483 98.4988C212.443 97.9988 211.333 97.7488 210.153 97.7488C209.093 97.7488 208.363 97.9388 207.963 98.3188C207.563 98.6988 207.363 99.2888 207.363 100.089V102.189H216.183V117.999H213.423V104.319H207.363V117.999H204.603V104.319H202.083V102.189H204.603V100.119C204.603 98.7188 205.053 97.5988 205.953 96.7588C206.853 95.9188 208.223 95.4988 210.063 95.4988ZM227.649 101.829C228.589 101.829 229.449 101.969 230.229 102.249C231.009 102.509 231.759 102.939 232.479 103.539L231.159 105.279C230.599 104.879 230.049 104.589 229.509 104.409C228.989 104.209 228.409 104.109 227.769 104.109C226.489 104.109 225.489 104.619 224.769 105.639C224.069 106.659 223.719 108.169 223.719 110.169C223.719 112.169 224.069 113.649 224.769 114.609C225.469 115.549 226.469 116.019 227.769 116.019C228.389 116.019 228.959 115.929 229.479 115.749C229.999 115.549 230.579 115.239 231.219 114.819L232.479 116.619C231.039 117.779 229.429 118.359 227.649 118.359C225.509 118.359 223.819 117.639 222.579 116.199C221.359 114.759 220.749 112.769 220.749 110.229C220.749 108.549 221.029 107.079 221.589 105.819C222.149 104.559 222.939 103.579 223.959 102.879C224.999 102.179 226.229 101.829 227.649 101.829ZM238.975 102.189V117.999H236.215V102.189H238.975ZM237.565 94.5988C238.145 94.5988 238.615 94.7788 238.975 95.1388C239.335 95.4988 239.515 95.9488 239.515 96.4888C239.515 97.0288 239.335 97.4788 238.975 97.8388C238.615 98.1788 238.145 98.3488 237.565 98.3488C237.005 98.3488 236.545 98.1788 236.185 97.8388C235.825 97.4788 235.645 97.0288 235.645 96.4888C235.645 95.9488 235.825 95.4988 236.185 95.1388C236.545 94.7788 237.005 94.5988 237.565 94.5988ZM256.622 109.629C256.622 110.089 256.602 110.559 256.562 111.039H246.482C246.602 112.779 247.042 114.059 247.802 114.879C248.562 115.699 249.542 116.109 250.742 116.109C251.502 116.109 252.202 115.999 252.842 115.779C253.482 115.559 254.152 115.209 254.852 114.729L256.052 116.379C254.372 117.699 252.532 118.359 250.532 118.359C248.332 118.359 246.612 117.639 245.372 116.199C244.152 114.759 243.542 112.779 243.542 110.259C243.542 108.619 243.802 107.169 244.322 105.909C244.862 104.629 245.622 103.629 246.602 102.909C247.602 102.189 248.772 101.829 250.112 101.829C252.212 101.829 253.822 102.519 254.942 103.899C256.062 105.279 256.622 107.189 256.622 109.629ZM253.892 108.819C253.892 107.259 253.582 106.069 252.962 105.249C252.342 104.429 251.412 104.019 250.172 104.019C247.912 104.019 246.682 105.679 246.482 108.999H253.892V108.819ZM268.47 101.829C269.91 101.829 271.03 102.259 271.83 103.119C272.65 103.979 273.06 105.159 273.06 106.659V117.999H270.3V107.049C270.3 105.929 270.09 105.139 269.67 104.679C269.25 104.219 268.63 103.989 267.81 103.989C266.97 103.989 266.23 104.229 265.59 104.709C264.95 105.189 264.35 105.879 263.79 106.779V117.999H261.03V102.189H263.4L263.64 104.529C264.2 103.689 264.89 103.029 265.71 102.549C266.55 102.069 267.47 101.829 268.47 101.829ZM286.588 117.279C285.548 117.999 284.368 118.359 283.048 118.359C281.708 118.359 280.658 117.979 279.898 117.219C279.158 116.439 278.788 115.319 278.788 113.859V104.319H276.028V102.189H278.788V98.6188L281.548 98.2888V102.189H285.298L284.998 104.319H281.548V113.739C281.548 114.559 281.688 115.159 281.968 115.539C282.268 115.899 282.758 116.079 283.438 116.079C284.058 116.079 284.758 115.869 285.538 115.449L286.588 117.279Z" fill="black"/>
<path d="M63.5507 97.0573L107.051 128.557L69.4336 149.81L6.43359 179.56L63.5507 97.0573Z" fill="white" stroke="black" stroke-width="4"/>
<rect x="50" y="66" width="70" height="67" fill="white"/>
</svg>
