<svg width="432" height="146" viewBox="0 0 432 146" fill="none" xmlns="http://www.w3.org/2000/svg">
<rect x="64.4922" y="5.00171" width="365" height="138" rx="18" fill="white" stroke="black" stroke-width="4"/>
<path d="M131.949 30.3316V51.0016H129.099V30.3316H131.949ZM145.776 50.2816C144.736 51.0016 143.556 51.3616 142.236 51.3616C140.896 51.3616 139.846 50.9816 139.086 50.2216C138.346 49.4416 137.976 48.3216 137.976 46.8616V37.3216H135.216V35.1916H137.976V31.6216L140.736 31.2916V35.1916H144.486L144.186 37.3216H140.736V46.7416C140.736 47.5616 140.876 48.1616 141.156 48.5416C141.456 48.9016 141.946 49.0816 142.626 49.0816C143.246 49.0816 143.946 48.8716 144.726 48.4516L145.776 50.2816ZM164.556 50.2816C163.516 51.0016 162.336 51.3616 161.016 51.3616C159.676 51.3616 158.626 50.9816 157.866 50.2216C157.126 49.4416 156.756 48.3216 156.756 46.8616V37.3216H153.996V35.1916H156.756V31.6216L159.516 31.2916V35.1916H163.266L162.966 37.3216H159.516V46.7416C159.516 47.5616 159.656 48.1616 159.936 48.5416C160.236 48.9016 160.726 49.0816 161.406 49.0816C162.026 49.0816 162.726 48.8716 163.506 48.4516L164.556 50.2816ZM177.86 47.3116C177.86 47.9516 177.97 48.4316 178.19 48.7516C178.41 49.0516 178.74 49.2816 179.18 49.4416L178.55 51.3616C177.73 51.2616 177.07 51.0316 176.57 50.6716C176.07 50.3116 175.7 49.7516 175.46 48.9916C174.4 50.5716 172.83 51.3616 170.75 51.3616C169.19 51.3616 167.96 50.9216 167.06 50.0416C166.16 49.1616 165.71 48.0116 165.71 46.5916C165.71 44.9116 166.31 43.6216 167.51 42.7216C168.73 41.8216 170.45 41.3716 172.67 41.3716H175.1V40.2016C175.1 39.0816 174.83 38.2816 174.29 37.8016C173.75 37.3216 172.92 37.0816 171.8 37.0816C170.64 37.0816 169.22 37.3616 167.54 37.9216L166.85 35.9116C168.81 35.1916 170.63 34.8316 172.31 34.8316C174.17 34.8316 175.56 35.2916 176.48 36.2116C177.4 37.1116 177.86 38.4016 177.86 40.0816V47.3116ZM171.38 49.2916C172.96 49.2916 174.2 48.4716 175.1 46.8316V43.2016H173.03C170.11 43.2016 168.65 44.2816 168.65 46.4416C168.65 47.3816 168.88 48.0916 169.34 48.5716C169.8 49.0516 170.48 49.2916 171.38 49.2916ZM186.289 28.5016V51.0016H183.529V28.8316L186.289 28.5016ZM195.379 35.1916L189.559 42.1816L196.039 51.0016H192.739L186.469 42.3616L192.289 35.1916H195.379ZM210.557 42.6316C210.557 43.0916 210.537 43.5616 210.497 44.0416H200.417C200.537 45.7816 200.977 47.0616 201.737 47.8816C202.497 48.7016 203.477 49.1116 204.677 49.1116C205.437 49.1116 206.137 49.0016 206.777 48.7816C207.417 48.5616 208.087 48.2116 208.787 47.7316L209.987 49.3816C208.307 50.7016 206.467 51.3616 204.467 51.3616C202.267 51.3616 200.547 50.6416 199.307 49.2016C198.087 47.7616 197.477 45.7816 197.477 43.2616C197.477 41.6216 197.737 40.1716 198.257 38.9116C198.797 37.6316 199.557 36.6316 200.537 35.9116C201.537 35.1916 202.707 34.8316 204.047 34.8316C206.147 34.8316 207.757 35.5216 208.877 36.9016C209.997 38.2816 210.557 40.1916 210.557 42.6316ZM207.827 41.8216C207.827 40.2616 207.517 39.0716 206.897 38.2516C206.277 37.4316 205.347 37.0216 204.107 37.0216C201.847 37.0216 200.617 38.6816 200.417 42.0016H207.827V41.8216ZM219.254 34.8316C220.334 34.8316 221.304 34.9816 222.164 35.2816C223.024 35.5816 223.844 36.0316 224.624 36.6316L223.454 38.3716C222.734 37.9116 222.044 37.5716 221.384 37.3516C220.744 37.1316 220.064 37.0216 219.344 37.0216C218.444 37.0216 217.734 37.2116 217.214 37.5916C216.694 37.9516 216.434 38.4516 216.434 39.0916C216.434 39.7316 216.674 40.2316 217.154 40.5916C217.654 40.9516 218.544 41.3016 219.824 41.6416C221.584 42.0816 222.894 42.6816 223.754 43.4416C224.634 44.2016 225.074 45.2416 225.074 46.5616C225.074 48.1216 224.464 49.3116 223.244 50.1316C222.044 50.9516 220.574 51.3616 218.834 51.3616C216.434 51.3616 214.444 50.6716 212.864 49.2916L214.334 47.6116C215.674 48.6316 217.154 49.1416 218.774 49.1416C219.814 49.1416 220.634 48.9316 221.234 48.5116C221.854 48.0716 222.164 47.4816 222.164 46.7416C222.164 46.2016 222.054 45.7716 221.834 45.4516C221.614 45.1116 221.234 44.8216 220.694 44.5816C220.154 44.3216 219.364 44.0516 218.324 43.7716C216.644 43.3316 215.424 42.7416 214.664 42.0016C213.924 41.2616 213.554 40.3216 213.554 39.1816C213.554 38.3616 213.794 37.6216 214.274 36.9616C214.774 36.2816 215.454 35.7616 216.314 35.4016C217.194 35.0216 218.174 34.8316 219.254 34.8316ZM241.198 34.8316C242.278 34.8316 243.248 34.9816 244.108 35.2816C244.968 35.5816 245.788 36.0316 246.568 36.6316L245.398 38.3716C244.678 37.9116 243.988 37.5716 243.328 37.3516C242.688 37.1316 242.008 37.0216 241.288 37.0216C240.388 37.0216 239.678 37.2116 239.158 37.5916C238.638 37.9516 238.378 38.4516 238.378 39.0916C238.378 39.7316 238.618 40.2316 239.098 40.5916C239.598 40.9516 240.488 41.3016 241.768 41.6416C243.528 42.0816 244.838 42.6816 245.698 43.4416C246.578 44.2016 247.018 45.2416 247.018 46.5616C247.018 48.1216 246.408 49.3116 245.188 50.1316C243.988 50.9516 242.518 51.3616 240.778 51.3616C238.378 51.3616 236.388 50.6716 234.808 49.2916L236.278 47.6116C237.618 48.6316 239.098 49.1416 240.718 49.1416C241.758 49.1416 242.578 48.9316 243.178 48.5116C243.798 48.0716 244.108 47.4816 244.108 46.7416C244.108 46.2016 243.998 45.7716 243.778 45.4516C243.558 45.1116 243.178 44.8216 242.638 44.5816C242.098 44.3216 241.308 44.0516 240.268 43.7716C238.588 43.3316 237.368 42.7416 236.608 42.0016C235.868 41.2616 235.498 40.3216 235.498 39.1816C235.498 38.3616 235.738 37.6216 236.218 36.9616C236.718 36.2816 237.398 35.7616 238.258 35.4016C239.138 35.0216 240.118 34.8316 241.198 34.8316ZM256.852 34.8316C259.072 34.8316 260.792 35.5716 262.012 37.0516C263.252 38.5316 263.872 40.5416 263.872 43.0816C263.872 44.7216 263.592 46.1716 263.032 47.4316C262.472 48.6716 261.662 49.6416 260.602 50.3416C259.542 51.0216 258.282 51.3616 256.822 51.3616C254.602 51.3616 252.872 50.6216 251.632 49.1416C250.392 47.6616 249.772 45.6516 249.772 43.1116C249.772 41.4716 250.052 40.0316 250.612 38.7916C251.172 37.5316 251.982 36.5616 253.042 35.8816C254.102 35.1816 255.372 34.8316 256.852 34.8316ZM256.852 37.0516C254.112 37.0516 252.742 39.0716 252.742 43.1116C252.742 47.1316 254.102 49.1416 256.822 49.1416C259.542 49.1416 260.902 47.1216 260.902 43.0816C260.902 39.0616 259.552 37.0516 256.852 37.0516ZM279.521 51.3616C278.501 51.3616 277.691 51.0616 277.091 50.4616C276.511 49.8416 276.221 48.9816 276.221 47.8816V28.8316L278.981 28.5016V47.8216C278.981 48.2616 279.051 48.5816 279.191 48.7816C279.351 48.9816 279.611 49.0816 279.971 49.0816C280.351 49.0816 280.691 49.0216 280.991 48.9016L281.711 50.8216C281.051 51.1816 280.321 51.3616 279.521 51.3616ZM290.953 34.8316C293.173 34.8316 294.893 35.5716 296.113 37.0516C297.353 38.5316 297.973 40.5416 297.973 43.0816C297.973 44.7216 297.693 46.1716 297.133 47.4316C296.573 48.6716 295.763 49.6416 294.703 50.3416C293.643 51.0216 292.383 51.3616 290.923 51.3616C288.703 51.3616 286.973 50.6216 285.733 49.1416C284.493 47.6616 283.873 45.6516 283.873 43.1116C283.873 41.4716 284.153 40.0316 284.713 38.7916C285.273 37.5316 286.083 36.5616 287.143 35.8816C288.203 35.1816 289.473 34.8316 290.953 34.8316ZM290.953 37.0516C288.213 37.0516 286.843 39.0716 286.843 43.1116C286.843 47.1316 288.203 49.1416 290.923 49.1416C293.643 49.1416 295.003 47.1216 295.003 43.0816C295.003 39.0616 293.653 37.0516 290.953 37.0516ZM308.473 34.8316C310.693 34.8316 312.413 35.5716 313.633 37.0516C314.873 38.5316 315.493 40.5416 315.493 43.0816C315.493 44.7216 315.213 46.1716 314.653 47.4316C314.093 48.6716 313.283 49.6416 312.223 50.3416C311.163 51.0216 309.903 51.3616 308.443 51.3616C306.223 51.3616 304.493 50.6216 303.253 49.1416C302.013 47.6616 301.393 45.6516 301.393 43.1116C301.393 41.4716 301.673 40.0316 302.233 38.7916C302.793 37.5316 303.603 36.5616 304.663 35.8816C305.723 35.1816 306.993 34.8316 308.473 34.8316ZM308.473 37.0516C305.733 37.0516 304.363 39.0716 304.363 43.1116C304.363 47.1316 305.723 49.1416 308.443 49.1416C311.163 49.1416 312.523 47.1216 312.523 43.0816C312.523 39.0616 311.173 37.0516 308.473 37.0516ZM325.992 34.8316C328.212 34.8316 329.932 35.5716 331.152 37.0516C332.392 38.5316 333.012 40.5416 333.012 43.0816C333.012 44.7216 332.732 46.1716 332.172 47.4316C331.612 48.6716 330.802 49.6416 329.742 50.3416C328.682 51.0216 327.422 51.3616 325.962 51.3616C323.742 51.3616 322.012 50.6216 320.772 49.1416C319.532 47.6616 318.912 45.6516 318.912 43.1116C318.912 41.4716 319.192 40.0316 319.752 38.7916C320.312 37.5316 321.122 36.5616 322.182 35.8816C323.242 35.1816 324.512 34.8316 325.992 34.8316ZM325.992 37.0516C323.252 37.0516 321.882 39.0716 321.882 43.1116C321.882 47.1316 323.242 49.1416 325.962 49.1416C328.682 49.1416 330.042 47.1216 330.042 43.0816C330.042 39.0616 328.692 37.0516 325.992 37.0516ZM345.012 34.8316C346.452 34.8316 347.572 35.2616 348.372 36.1216C349.192 36.9816 349.602 38.1616 349.602 39.6616V51.0016H346.842V40.0516C346.842 38.9316 346.632 38.1416 346.212 37.6816C345.792 37.2216 345.172 36.9916 344.352 36.9916C343.512 36.9916 342.772 37.2316 342.132 37.7116C341.492 38.1916 340.892 38.8816 340.332 39.7816V51.0016H337.572V35.1916H339.942L340.182 37.5316C340.742 36.6916 341.432 36.0316 342.252 35.5516C343.092 35.0716 344.012 34.8316 345.012 34.8316ZM367.9 35.9116C367.3 36.1116 366.64 36.2416 365.92 36.3016C365.2 36.3616 364.32 36.3916 363.28 36.3916C365.14 37.2316 366.07 38.5616 366.07 40.3816C366.07 41.9616 365.53 43.2516 364.45 44.2516C363.37 45.2516 361.9 45.7516 360.04 45.7516C359.32 45.7516 358.65 45.6516 358.03 45.4516C357.79 45.6116 357.6 45.8316 357.46 46.1116C357.32 46.3716 357.25 46.6416 357.25 46.9216C357.25 47.7816 357.94 48.2116 359.32 48.2116H361.84C362.9 48.2116 363.84 48.4016 364.66 48.7816C365.48 49.1616 366.11 49.6816 366.55 50.3416C367.01 51.0016 367.24 51.7516 367.24 52.5916C367.24 54.1316 366.61 55.3116 365.35 56.1316C364.09 56.9716 362.25 57.3916 359.83 57.3916C358.13 57.3916 356.78 57.2116 355.78 56.8516C354.8 56.5116 354.1 55.9916 353.68 55.2916C353.26 54.5916 353.05 53.6916 353.05 52.5916H355.54C355.54 53.2316 355.66 53.7316 355.9 54.0916C356.14 54.4716 356.57 54.7516 357.19 54.9316C357.81 55.1316 358.69 55.2316 359.83 55.2316C361.49 55.2316 362.67 55.0216 363.37 54.6016C364.09 54.2016 364.45 53.5916 364.45 52.7716C364.45 52.0316 364.17 51.4716 363.61 51.0916C363.05 50.7116 362.27 50.5216 361.27 50.5216H358.78C357.44 50.5216 356.42 50.2416 355.72 49.6816C355.04 49.1016 354.7 48.3816 354.7 47.5216C354.7 47.0016 354.85 46.5016 355.15 46.0216C355.45 45.5416 355.88 45.1116 356.44 44.7316C355.52 44.2516 354.84 43.6616 354.4 42.9616C353.98 42.2416 353.77 41.3716 353.77 40.3516C353.77 39.2916 354.03 38.3416 354.55 37.5016C355.09 36.6616 355.82 36.0116 356.74 35.5516C357.68 35.0716 358.72 34.8316 359.86 34.8316C361.1 34.8516 362.14 34.8116 362.98 34.7116C363.82 34.5916 364.51 34.4416 365.05 34.2616C365.61 34.0616 366.29 33.7816 367.09 33.4216L367.9 35.9116ZM359.86 36.8116C358.82 36.8116 358.01 37.1416 357.43 37.8016C356.87 38.4416 356.59 39.2916 356.59 40.3516C356.59 41.4316 356.88 42.3016 357.46 42.9616C358.04 43.6016 358.86 43.9216 359.92 43.9216C361 43.9216 361.82 43.6116 362.38 42.9916C362.96 42.3516 363.25 41.4616 363.25 40.3216C363.25 37.9816 362.12 36.8116 359.86 36.8116ZM150.801 86.2816C149.761 87.0016 148.581 87.3616 147.261 87.3616C145.921 87.3616 144.871 86.9816 144.111 86.2216C143.371 85.4416 143.001 84.3216 143.001 82.8616V73.3216H140.241V71.1916H143.001V67.6216L145.761 67.2916V71.1916H149.511L149.211 73.3216H145.761V82.7416C145.761 83.5616 145.901 84.1616 146.181 84.5416C146.481 84.9016 146.971 85.0816 147.651 85.0816C148.271 85.0816 148.971 84.8716 149.751 84.4516L150.801 86.2816ZM159.161 70.8316C161.381 70.8316 163.101 71.5716 164.321 73.0516C165.561 74.5316 166.181 76.5416 166.181 79.0816C166.181 80.7216 165.901 82.1716 165.341 83.4316C164.781 84.6716 163.971 85.6416 162.911 86.3416C161.851 87.0216 160.591 87.3616 159.131 87.3616C156.911 87.3616 155.181 86.6216 153.941 85.1416C152.701 83.6616 152.081 81.6516 152.081 79.1116C152.081 77.4716 152.361 76.0316 152.921 74.7916C153.481 73.5316 154.291 72.5616 155.351 71.8816C156.411 71.1816 157.681 70.8316 159.161 70.8316ZM159.161 73.0516C156.421 73.0516 155.051 75.0716 155.051 79.1116C155.051 83.1316 156.411 85.1416 159.131 85.1416C161.851 85.1416 163.211 83.1216 163.211 79.0816C163.211 75.0616 161.861 73.0516 159.161 73.0516ZM191.43 71.9116C190.83 72.1116 190.17 72.2416 189.45 72.3016C188.73 72.3616 187.85 72.3916 186.81 72.3916C188.67 73.2316 189.6 74.5616 189.6 76.3816C189.6 77.9616 189.06 79.2516 187.98 80.2516C186.9 81.2516 185.43 81.7516 183.57 81.7516C182.85 81.7516 182.18 81.6516 181.56 81.4516C181.32 81.6116 181.13 81.8316 180.99 82.1116C180.85 82.3716 180.78 82.6416 180.78 82.9216C180.78 83.7816 181.47 84.2116 182.85 84.2116H185.37C186.43 84.2116 187.37 84.4016 188.19 84.7816C189.01 85.1616 189.64 85.6816 190.08 86.3416C190.54 87.0016 190.77 87.7516 190.77 88.5916C190.77 90.1316 190.14 91.3116 188.88 92.1316C187.62 92.9716 185.78 93.3916 183.36 93.3916C181.66 93.3916 180.31 93.2116 179.31 92.8516C178.33 92.5116 177.63 91.9916 177.21 91.2916C176.79 90.5916 176.58 89.6916 176.58 88.5916H179.07C179.07 89.2316 179.19 89.7316 179.43 90.0916C179.67 90.4716 180.1 90.7516 180.72 90.9316C181.34 91.1316 182.22 91.2316 183.36 91.2316C185.02 91.2316 186.2 91.0216 186.9 90.6016C187.62 90.2016 187.98 89.5916 187.98 88.7716C187.98 88.0316 187.7 87.4716 187.14 87.0916C186.58 86.7116 185.8 86.5216 184.8 86.5216H182.31C180.97 86.5216 179.95 86.2416 179.25 85.6816C178.57 85.1016 178.23 84.3816 178.23 83.5216C178.23 83.0016 178.38 82.5016 178.68 82.0216C178.98 81.5416 179.41 81.1116 179.97 80.7316C179.05 80.2516 178.37 79.6616 177.93 78.9616C177.51 78.2416 177.3 77.3716 177.3 76.3516C177.3 75.2916 177.56 74.3416 178.08 73.5016C178.62 72.6616 179.35 72.0116 180.27 71.5516C181.21 71.0716 182.25 70.8316 183.39 70.8316C184.63 70.8516 185.67 70.8116 186.51 70.7116C187.35 70.5916 188.04 70.4416 188.58 70.2616C189.14 70.0616 189.82 69.7816 190.62 69.4216L191.43 71.9116ZM183.39 72.8116C182.35 72.8116 181.54 73.1416 180.96 73.8016C180.4 74.4416 180.12 75.2916 180.12 76.3516C180.12 77.4316 180.41 78.3016 180.99 78.9616C181.57 79.6016 182.39 79.9216 183.45 79.9216C184.53 79.9216 185.35 79.6116 185.91 78.9916C186.49 78.3516 186.78 77.4616 186.78 76.3216C186.78 73.9816 185.65 72.8116 183.39 72.8116ZM205.737 78.6316C205.737 79.0916 205.717 79.5616 205.677 80.0416H195.597C195.717 81.7816 196.157 83.0616 196.917 83.8816C197.677 84.7016 198.657 85.1116 199.857 85.1116C200.617 85.1116 201.317 85.0016 201.957 84.7816C202.597 84.5616 203.267 84.2116 203.967 83.7316L205.167 85.3816C203.487 86.7016 201.647 87.3616 199.647 87.3616C197.447 87.3616 195.727 86.6416 194.487 85.2016C193.267 83.7616 192.657 81.7816 192.657 79.2616C192.657 77.6216 192.917 76.1716 193.437 74.9116C193.977 73.6316 194.737 72.6316 195.717 71.9116C196.717 71.1916 197.887 70.8316 199.227 70.8316C201.327 70.8316 202.937 71.5216 204.057 72.9016C205.177 74.2816 205.737 76.1916 205.737 78.6316ZM203.007 77.8216C203.007 76.2616 202.697 75.0716 202.077 74.2516C201.457 73.4316 200.527 73.0216 199.287 73.0216C197.027 73.0216 195.797 74.6816 195.597 78.0016H203.007V77.8216ZM218.125 86.2816C217.085 87.0016 215.905 87.3616 214.585 87.3616C213.245 87.3616 212.195 86.9816 211.435 86.2216C210.695 85.4416 210.325 84.3216 210.325 82.8616V73.3216H207.565V71.1916H210.325V67.6216L213.085 67.2916V71.1916H216.835L216.535 73.3216H213.085V82.7416C213.085 83.5616 213.225 84.1616 213.505 84.5416C213.805 84.9016 214.295 85.0816 214.975 85.0816C215.595 85.0816 216.295 84.8716 217.075 84.4516L218.125 86.2816ZM239.574 83.3116C239.574 83.9516 239.684 84.4316 239.904 84.7516C240.124 85.0516 240.454 85.2816 240.894 85.4416L240.264 87.3616C239.444 87.2616 238.784 87.0316 238.284 86.6716C237.784 86.3116 237.414 85.7516 237.174 84.9916C236.114 86.5716 234.544 87.3616 232.464 87.3616C230.904 87.3616 229.674 86.9216 228.774 86.0416C227.874 85.1616 227.424 84.0116 227.424 82.5916C227.424 80.9116 228.024 79.6216 229.224 78.7216C230.444 77.8216 232.164 77.3716 234.384 77.3716H236.814V76.2016C236.814 75.0816 236.544 74.2816 236.004 73.8016C235.464 73.3216 234.634 73.0816 233.514 73.0816C232.354 73.0816 230.934 73.3616 229.254 73.9216L228.564 71.9116C230.524 71.1916 232.344 70.8316 234.024 70.8316C235.884 70.8316 237.274 71.2916 238.194 72.2116C239.114 73.1116 239.574 74.4016 239.574 76.0816V83.3116ZM233.094 85.2916C234.674 85.2916 235.914 84.4716 236.814 82.8316V79.2016H234.744C231.824 79.2016 230.364 80.2816 230.364 82.4416C230.364 83.3816 230.594 84.0916 231.054 84.5716C231.514 85.0516 232.194 85.2916 233.094 85.2916ZM248.1 87.3616C247.08 87.3616 246.27 87.0616 245.67 86.4616C245.09 85.8416 244.8 84.9816 244.8 83.8816V64.8316L247.56 64.5016V83.8216C247.56 84.2616 247.63 84.5816 247.77 84.7816C247.93 84.9816 248.19 85.0816 248.55 85.0816C248.93 85.0816 249.27 85.0216 249.57 84.9016L250.29 86.8216C249.63 87.1816 248.9 87.3616 248.1 87.3616ZM256.889 87.3616C255.869 87.3616 255.059 87.0616 254.459 86.4616C253.879 85.8416 253.589 84.9816 253.589 83.8816V64.8316L256.349 64.5016V83.8216C256.349 84.2616 256.419 84.5816 256.559 84.7816C256.719 84.9816 256.979 85.0816 257.339 85.0816C257.719 85.0816 258.059 85.0216 258.359 84.9016L259.079 86.8216C258.419 87.1816 257.689 87.3616 256.889 87.3616ZM276.407 70.8316C278.627 70.8316 280.347 71.5716 281.567 73.0516C282.807 74.5316 283.427 76.5416 283.427 79.0816C283.427 80.7216 283.147 82.1716 282.587 83.4316C282.027 84.6716 281.217 85.6416 280.157 86.3416C279.097 87.0216 277.837 87.3616 276.377 87.3616C274.157 87.3616 272.427 86.6216 271.187 85.1416C269.947 83.6616 269.327 81.6516 269.327 79.1116C269.327 77.4716 269.607 76.0316 270.167 74.7916C270.727 73.5316 271.537 72.5616 272.597 71.8816C273.657 71.1816 274.927 70.8316 276.407 70.8316ZM276.407 73.0516C273.667 73.0516 272.297 75.0716 272.297 79.1116C272.297 83.1316 273.657 85.1416 276.377 85.1416C279.097 85.1416 280.457 83.1216 280.457 79.0816C280.457 75.0616 279.107 73.0516 276.407 73.0516ZM293.357 66.7216C292.517 66.7216 291.917 66.9116 291.557 67.2916C291.197 67.6516 291.017 68.2216 291.017 69.0016V71.1916H294.857L294.557 73.3216H291.017V87.0016H288.257V73.3216H285.437V71.1916H288.257V69.0316C288.257 67.6716 288.687 66.5816 289.547 65.7616C290.427 64.9216 291.647 64.5016 293.207 64.5016C293.927 64.5016 294.567 64.5716 295.127 64.7116C295.707 64.8316 296.327 65.0316 296.987 65.3116L296.117 67.3216C295.217 66.9216 294.297 66.7216 293.357 66.7216ZM313.955 86.2816C312.915 87.0016 311.735 87.3616 310.415 87.3616C309.075 87.3616 308.025 86.9816 307.265 86.2216C306.525 85.4416 306.155 84.3216 306.155 82.8616V73.3216H303.395V71.1916H306.155V67.6216L308.915 67.2916V71.1916H312.665L312.365 73.3216H308.915V82.7416C308.915 83.5616 309.055 84.1616 309.335 84.5416C309.635 84.9016 310.125 85.0816 310.805 85.0816C311.425 85.0816 312.125 84.8716 312.905 84.4516L313.955 86.2816ZM324.255 70.8316C325.695 70.8316 326.815 71.2616 327.615 72.1216C328.435 72.9816 328.845 74.1616 328.845 75.6616V87.0016H326.085V76.0516C326.085 74.9316 325.865 74.1416 325.425 73.6816C325.005 73.2216 324.385 72.9916 323.565 72.9916C322.745 72.9916 322.015 73.2316 321.375 73.7116C320.735 74.1916 320.135 74.8716 319.575 75.7516V87.0016H316.815V64.8616L319.575 64.5616V73.3816C320.815 71.6816 322.375 70.8316 324.255 70.8316ZM337.153 71.1916V87.0016H334.393V71.1916H337.153ZM335.743 63.6016C336.323 63.6016 336.793 63.7816 337.153 64.1416C337.513 64.5016 337.693 64.9516 337.693 65.4916C337.693 66.0316 337.513 66.4816 337.153 66.8416C336.793 67.1816 336.323 67.3516 335.743 67.3516C335.183 67.3516 334.723 67.1816 334.363 66.8416C334.003 66.4816 333.823 66.0316 333.823 65.4916C333.823 64.9516 334.003 64.5016 334.363 64.1416C334.723 63.7816 335.183 63.6016 335.743 63.6016ZM347.15 70.8316C348.23 70.8316 349.2 70.9816 350.06 71.2816C350.92 71.5816 351.74 72.0316 352.52 72.6316L351.35 74.3716C350.63 73.9116 349.94 73.5716 349.28 73.3516C348.64 73.1316 347.96 73.0216 347.24 73.0216C346.34 73.0216 345.63 73.2116 345.11 73.5916C344.59 73.9516 344.33 74.4516 344.33 75.0916C344.33 75.7316 344.57 76.2316 345.05 76.5916C345.55 76.9516 346.44 77.3016 347.72 77.6416C349.48 78.0816 350.79 78.6816 351.65 79.4416C352.53 80.2016 352.97 81.2416 352.97 82.5616C352.97 84.1216 352.36 85.3116 351.14 86.1316C349.94 86.9516 348.47 87.3616 346.73 87.3616C344.33 87.3616 342.34 86.6716 340.76 85.2916L342.23 83.6116C343.57 84.6316 345.05 85.1416 346.67 85.1416C347.71 85.1416 348.53 84.9316 349.13 84.5116C349.75 84.0716 350.06 83.4816 350.06 82.7416C350.06 82.2016 349.95 81.7716 349.73 81.4516C349.51 81.1116 349.13 80.8216 348.59 80.5816C348.05 80.3216 347.26 80.0516 346.22 79.7716C344.54 79.3316 343.32 78.7416 342.56 78.0016C341.82 77.2616 341.45 76.3216 341.45 75.1816C341.45 74.3616 341.69 73.6216 342.17 72.9616C342.67 72.2816 343.35 71.7616 344.21 71.4016C345.09 71.0216 346.07 70.8316 347.15 70.8316ZM227.395 100.832V123.002H224.965L224.695 120.812C224.175 121.612 223.525 122.242 222.745 122.702C221.965 123.142 221.095 123.362 220.135 123.362C218.255 123.362 216.785 122.622 215.725 121.142C214.685 119.662 214.165 117.672 214.165 115.172C214.165 113.552 214.415 112.112 214.915 110.852C215.415 109.592 216.135 108.612 217.075 107.912C218.015 107.192 219.115 106.832 220.375 106.832C221.995 106.832 223.415 107.482 224.635 108.782V100.502L227.395 100.832ZM220.735 121.172C221.575 121.172 222.295 120.982 222.895 120.602C223.495 120.202 224.075 119.612 224.635 118.832V111.092C224.115 110.412 223.555 109.902 222.955 109.562C222.375 109.202 221.715 109.022 220.975 109.022C219.755 109.022 218.805 109.532 218.125 110.552C217.465 111.572 217.135 113.092 217.135 115.112C217.135 117.152 217.445 118.672 218.065 119.672C218.685 120.672 219.575 121.172 220.735 121.172ZM239.024 106.832C241.244 106.832 242.964 107.572 244.184 109.052C245.424 110.532 246.044 112.542 246.044 115.082C246.044 116.722 245.764 118.172 245.204 119.432C244.644 120.672 243.834 121.642 242.774 122.342C241.714 123.022 240.454 123.362 238.994 123.362C236.774 123.362 235.044 122.622 233.804 121.142C232.564 119.662 231.944 117.652 231.944 115.112C231.944 113.472 232.224 112.032 232.784 110.792C233.344 109.532 234.154 108.562 235.214 107.882C236.274 107.182 237.544 106.832 239.024 106.832ZM239.024 109.052C236.284 109.052 234.914 111.072 234.914 115.112C234.914 119.132 236.274 121.142 238.994 121.142C241.714 121.142 243.074 119.122 243.074 115.082C243.074 111.062 241.724 109.052 239.024 109.052ZM258.044 106.832C259.484 106.832 260.604 107.262 261.404 108.122C262.224 108.982 262.634 110.162 262.634 111.662V123.002H259.874V112.052C259.874 110.932 259.664 110.142 259.244 109.682C258.824 109.222 258.204 108.992 257.384 108.992C256.544 108.992 255.804 109.232 255.164 109.712C254.524 110.192 253.924 110.882 253.364 111.782V123.002H250.604V107.192H252.974L253.214 109.532C253.774 108.692 254.464 108.032 255.284 107.552C256.124 107.072 257.044 106.832 258.044 106.832ZM280.122 114.632C280.122 115.092 280.102 115.562 280.062 116.042H269.982C270.102 117.782 270.542 119.062 271.302 119.882C272.062 120.702 273.042 121.112 274.242 121.112C275.002 121.112 275.702 121.002 276.342 120.782C276.982 120.562 277.652 120.212 278.352 119.732L279.552 121.382C277.872 122.702 276.032 123.362 274.032 123.362C271.832 123.362 270.112 122.642 268.872 121.202C267.652 119.762 267.042 117.782 267.042 115.262C267.042 113.622 267.302 112.172 267.822 110.912C268.362 109.632 269.122 108.632 270.102 107.912C271.102 107.192 272.272 106.832 273.612 106.832C275.712 106.832 277.322 107.522 278.442 108.902C279.562 110.282 280.122 112.192 280.122 114.632ZM277.392 113.822C277.392 112.262 277.082 111.072 276.462 110.252C275.842 109.432 274.912 109.022 273.672 109.022C271.412 109.022 270.182 110.682 269.982 114.002H277.392V113.822Z" fill="black"/>
<path d="M106.726 46.9539L115.211 99.9869L73.5842 88.4154L8 64.9041L106.726 46.9539Z" fill="white" stroke="black" stroke-width="4"/>
<rect x="68" y="37" width="55" height="67" fill="white"/>
</svg>
