<svg width="406" height="223" viewBox="0 0 406 223" fill="none" xmlns="http://www.w3.org/2000/svg">
<rect x="38.4922" y="58" width="365" height="163" rx="18" fill="white" stroke="black" stroke-width="4"/>
<path d="M87.9947 63.1171L56.4947 106.617L35.2422 69L5.49219 6L87.9947 63.1171Z" fill="white" stroke="black" stroke-width="4"/>
<path d="M122.722 96.33L118.522 117H114.862L111.052 99.69L107.212 117H103.642L99.4424 96.33H102.232L105.562 114.51L109.552 96.33H112.582L116.662 114.51L120.112 96.33H122.722ZM136.069 113.31C136.069 113.95 136.179 114.43 136.399 114.75C136.619 115.05 136.949 115.28 137.389 115.44L136.759 117.36C135.939 117.26 135.279 117.03 134.779 116.67C134.279 116.31 133.909 115.75 133.669 114.99C132.609 116.57 131.039 117.36 128.959 117.36C127.399 117.36 126.169 116.92 125.269 116.04C124.369 115.16 123.919 114.01 123.919 112.59C123.919 110.91 124.519 109.62 125.719 108.72C126.939 107.82 128.659 107.37 130.879 107.37H133.309V106.2C133.309 105.08 133.039 104.28 132.499 103.8C131.959 103.32 131.129 103.08 130.009 103.08C128.849 103.08 127.429 103.36 125.749 103.92L125.059 101.91C127.019 101.19 128.839 100.83 130.519 100.83C132.379 100.83 133.769 101.29 134.689 102.21C135.609 103.11 136.069 104.4 136.069 106.08V113.31ZM129.589 115.29C131.169 115.29 132.409 114.47 133.309 112.83V109.2H131.239C128.319 109.2 126.859 110.28 126.859 112.44C126.859 113.38 127.089 114.09 127.549 114.57C128.009 115.05 128.689 115.29 129.589 115.29ZM149.178 100.83C150.618 100.83 151.738 101.26 152.538 102.12C153.358 102.98 153.768 104.16 153.768 105.66V117H151.008V106.05C151.008 104.93 150.788 104.14 150.348 103.68C149.928 103.22 149.308 102.99 148.488 102.99C147.668 102.99 146.938 103.23 146.298 103.71C145.658 104.19 145.058 104.87 144.498 105.75V117H141.738V94.86L144.498 94.56V103.38C145.738 101.68 147.298 100.83 149.178 100.83ZM161.566 96.33L161.266 110.1H158.836L158.506 96.33H161.566ZM160.066 113.19C160.666 113.19 161.166 113.39 161.566 113.79C161.966 114.19 162.166 114.68 162.166 115.26C162.166 115.84 161.966 116.34 161.566 116.76C161.166 117.16 160.666 117.36 160.066 117.36C159.486 117.36 158.996 117.16 158.596 116.76C158.196 116.34 157.996 115.84 157.996 115.26C157.996 114.68 158.196 114.19 158.596 113.79C158.996 113.39 159.486 113.19 160.066 113.19ZM177.492 96.33V117H174.642V96.33H177.492ZM203.519 94.83V117H201.089L200.819 114.81C200.299 115.61 199.649 116.24 198.869 116.7C198.089 117.14 197.219 117.36 196.259 117.36C194.379 117.36 192.909 116.62 191.849 115.14C190.809 113.66 190.289 111.67 190.289 109.17C190.289 107.55 190.539 106.11 191.039 104.85C191.539 103.59 192.259 102.61 193.199 101.91C194.139 101.19 195.239 100.83 196.499 100.83C198.119 100.83 199.539 101.48 200.759 102.78V94.5L203.519 94.83ZM196.859 115.17C197.699 115.17 198.419 114.98 199.019 114.6C199.619 114.2 200.199 113.61 200.759 112.83V105.09C200.239 104.41 199.679 103.9 199.079 103.56C198.499 103.2 197.839 103.02 197.099 103.02C195.879 103.02 194.929 103.53 194.249 104.55C193.589 105.57 193.259 107.09 193.259 109.11C193.259 111.15 193.569 112.67 194.189 113.67C194.809 114.67 195.699 115.17 196.859 115.17ZM211.968 101.19V117H209.208V101.19H211.968ZM210.558 93.6C211.138 93.6 211.608 93.78 211.968 94.14C212.328 94.5 212.508 94.95 212.508 95.49C212.508 96.03 212.328 96.48 211.968 96.84C211.608 97.18 211.138 97.35 210.558 97.35C209.998 97.35 209.538 97.18 209.178 96.84C208.818 96.48 208.638 96.03 208.638 95.49C208.638 94.95 208.818 94.5 209.178 94.14C209.538 93.78 209.998 93.6 210.558 93.6ZM229.915 94.83V117H227.485L227.215 114.81C226.695 115.61 226.045 116.24 225.265 116.7C224.485 117.14 223.615 117.36 222.655 117.36C220.775 117.36 219.305 116.62 218.245 115.14C217.205 113.66 216.685 111.67 216.685 109.17C216.685 107.55 216.935 106.11 217.435 104.85C217.935 103.59 218.655 102.61 219.595 101.91C220.535 101.19 221.635 100.83 222.895 100.83C224.515 100.83 225.935 101.48 227.155 102.78V94.5L229.915 94.83ZM223.255 115.17C224.095 115.17 224.815 114.98 225.415 114.6C226.015 114.2 226.595 113.61 227.155 112.83V105.09C226.635 104.41 226.075 103.9 225.475 103.56C224.895 103.2 224.235 103.02 223.495 103.02C222.275 103.02 221.325 103.53 220.645 104.55C219.985 105.57 219.655 107.09 219.655 109.11C219.655 111.15 219.965 112.67 220.585 113.67C221.205 114.67 222.095 115.17 223.255 115.17ZM243.045 100.83C244.485 100.83 245.605 101.26 246.405 102.12C247.225 102.98 247.635 104.16 247.635 105.66V117H244.875V106.05C244.875 104.93 244.665 104.14 244.245 103.68C243.825 103.22 243.205 102.99 242.385 102.99C241.545 102.99 240.805 103.23 240.165 103.71C239.525 104.19 238.925 104.88 238.365 105.78V117H235.605V101.19H237.975L238.215 103.53C238.775 102.69 239.465 102.03 240.285 101.55C241.125 101.07 242.045 100.83 243.045 100.83ZM253.61 94.41C254.15 94.41 254.61 94.6 254.99 94.98C255.37 95.34 255.56 95.78 255.56 96.3C255.56 96.54 255.52 96.79 255.44 97.05C255.38 97.29 255.25 97.62 255.05 98.04L253.04 102.3H251.24L252.44 97.8C251.92 97.4 251.66 96.9 251.66 96.3C251.66 95.78 251.85 95.34 252.23 94.98C252.63 94.6 253.09 94.41 253.61 94.41ZM267.989 116.28C266.949 117 265.769 117.36 264.449 117.36C263.109 117.36 262.059 116.98 261.299 116.22C260.559 115.44 260.189 114.32 260.189 112.86V103.32H257.429V101.19H260.189V97.62L262.949 97.29V101.19H266.699L266.399 103.32H262.949V112.74C262.949 113.56 263.089 114.16 263.369 114.54C263.669 114.9 264.159 115.08 264.839 115.08C265.459 115.08 266.159 114.87 266.939 114.45L267.989 116.28ZM286.768 116.28C285.728 117 284.548 117.36 283.228 117.36C281.888 117.36 280.838 116.98 280.078 116.22C279.338 115.44 278.968 114.32 278.968 112.86V103.32H276.208V101.19H278.968V97.62L281.728 97.29V101.19H285.478L285.178 103.32H281.728V112.74C281.728 113.56 281.868 114.16 282.148 114.54C282.448 114.9 282.938 115.08 283.618 115.08C284.238 115.08 284.938 114.87 285.718 114.45L286.768 116.28ZM296.498 100.83C297.058 100.83 297.578 100.89 298.058 101.01L297.548 103.71C297.068 103.59 296.608 103.53 296.168 103.53C295.188 103.53 294.398 103.89 293.798 104.61C293.198 105.33 292.728 106.45 292.388 107.97V117H289.628V101.19H291.998L292.268 104.4C292.688 103.22 293.258 102.33 293.978 101.73C294.698 101.13 295.538 100.83 296.498 100.83ZM310.796 113.31C310.796 113.95 310.906 114.43 311.126 114.75C311.346 115.05 311.676 115.28 312.116 115.44L311.486 117.36C310.666 117.26 310.006 117.03 309.506 116.67C309.006 116.31 308.636 115.75 308.396 114.99C307.336 116.57 305.766 117.36 303.686 117.36C302.126 117.36 300.896 116.92 299.996 116.04C299.096 115.16 298.646 114.01 298.646 112.59C298.646 110.91 299.246 109.62 300.446 108.72C301.666 107.82 303.386 107.37 305.606 107.37H308.036V106.2C308.036 105.08 307.766 104.28 307.226 103.8C306.686 103.32 305.856 103.08 304.736 103.08C303.576 103.08 302.156 103.36 300.476 103.92L299.786 101.91C301.746 101.19 303.566 100.83 305.246 100.83C307.106 100.83 308.496 101.29 309.416 102.21C310.336 103.11 310.796 104.4 310.796 106.08V113.31ZM304.316 115.29C305.896 115.29 307.136 114.47 308.036 112.83V109.2H305.966C303.046 109.2 301.586 110.28 301.586 112.44C301.586 113.38 301.816 114.09 302.276 114.57C302.736 115.05 303.416 115.29 304.316 115.29ZM322.224 100.83C323.164 100.83 324.024 100.97 324.804 101.25C325.584 101.51 326.334 101.94 327.054 102.54L325.734 104.28C325.174 103.88 324.624 103.59 324.084 103.41C323.564 103.21 322.984 103.11 322.344 103.11C321.064 103.11 320.064 103.62 319.344 104.64C318.644 105.66 318.294 107.17 318.294 109.17C318.294 111.17 318.644 112.65 319.344 113.61C320.044 114.55 321.044 115.02 322.344 115.02C322.964 115.02 323.534 114.93 324.054 114.75C324.574 114.55 325.154 114.24 325.794 113.82L327.054 115.62C325.614 116.78 324.004 117.36 322.224 117.36C320.084 117.36 318.394 116.64 317.154 115.2C315.934 113.76 315.324 111.77 315.324 109.23C315.324 107.55 315.604 106.08 316.164 104.82C316.724 103.56 317.514 102.58 318.534 101.88C319.574 101.18 320.804 100.83 322.224 100.83ZM333.55 94.5V117H330.79V94.83L333.55 94.5ZM342.64 101.19L336.82 108.18L343.3 117H340L333.73 108.36L339.55 101.19H342.64ZM131.592 136.83C132.892 136.83 133.932 137.27 134.712 138.15C135.492 139.01 135.882 140.18 135.882 141.66V153H133.122V142.05C133.122 140.01 132.382 138.99 130.902 138.99C130.122 138.99 129.462 139.22 128.922 139.68C128.382 140.12 127.802 140.82 127.182 141.78V153H124.422V142.05C124.422 140.01 123.682 138.99 122.202 138.99C121.402 138.99 120.732 139.22 120.192 139.68C119.652 140.14 119.082 140.84 118.482 141.78V153H115.722V137.19H118.092L118.332 139.5C119.512 137.72 121.032 136.83 122.892 136.83C123.872 136.83 124.702 137.08 125.382 137.58C126.082 138.08 126.582 138.78 126.882 139.68C127.502 138.76 128.182 138.06 128.922 137.58C129.682 137.08 130.572 136.83 131.592 136.83ZM147.57 153.09C146.95 154.93 146.08 156.38 144.96 157.44C143.86 158.52 142.28 159.17 140.22 159.39L139.92 157.23C140.96 157.05 141.79 156.79 142.41 156.45C143.03 156.11 143.52 155.67 143.88 155.13C144.26 154.61 144.61 153.9 144.93 153H144L138.69 137.19H141.63L145.86 150.99L150 137.19H152.85L147.57 153.09ZM171.925 152.28C170.885 153 169.705 153.36 168.385 153.36C167.045 153.36 165.995 152.98 165.235 152.22C164.495 151.44 164.125 150.32 164.125 148.86V139.32H161.365V137.19H164.125V133.62L166.885 133.29V137.19H170.635L170.335 139.32H166.885V148.74C166.885 149.56 167.025 150.16 167.305 150.54C167.605 150.9 168.095 151.08 168.775 151.08C169.395 151.08 170.095 150.87 170.875 150.45L171.925 152.28ZM181.655 136.83C182.215 136.83 182.735 136.89 183.215 137.01L182.705 139.71C182.225 139.59 181.765 139.53 181.325 139.53C180.345 139.53 179.555 139.89 178.955 140.61C178.355 141.33 177.885 142.45 177.545 143.97V153H174.785V137.19H177.155L177.425 140.4C177.845 139.22 178.415 138.33 179.135 137.73C179.855 137.13 180.695 136.83 181.655 136.83ZM195.952 149.31C195.952 149.95 196.062 150.43 196.282 150.75C196.502 151.05 196.832 151.28 197.272 151.44L196.642 153.36C195.822 153.26 195.162 153.03 194.662 152.67C194.162 152.31 193.792 151.75 193.552 150.99C192.492 152.57 190.922 153.36 188.842 153.36C187.282 153.36 186.052 152.92 185.152 152.04C184.252 151.16 183.802 150.01 183.802 148.59C183.802 146.91 184.402 145.62 185.602 144.72C186.822 143.82 188.542 143.37 190.762 143.37H193.192V142.2C193.192 141.08 192.922 140.28 192.382 139.8C191.842 139.32 191.012 139.08 189.892 139.08C188.732 139.08 187.312 139.36 185.632 139.92L184.942 137.91C186.902 137.19 188.722 136.83 190.402 136.83C192.262 136.83 193.652 137.29 194.572 138.21C195.492 139.11 195.952 140.4 195.952 142.08V149.31ZM189.472 151.29C191.052 151.29 192.292 150.47 193.192 148.83V145.2H191.122C188.202 145.2 186.742 146.28 186.742 148.44C186.742 149.38 186.972 150.09 187.432 150.57C187.892 151.05 188.572 151.29 189.472 151.29ZM209.061 136.83C210.501 136.83 211.621 137.26 212.421 138.12C213.241 138.98 213.651 140.16 213.651 141.66V153H210.891V142.05C210.891 140.93 210.681 140.14 210.261 139.68C209.841 139.22 209.221 138.99 208.401 138.99C207.561 138.99 206.821 139.23 206.181 139.71C205.541 140.19 204.941 140.88 204.381 141.78V153H201.621V137.19H203.991L204.231 139.53C204.791 138.69 205.481 138.03 206.301 137.55C207.141 137.07 208.061 136.83 209.061 136.83ZM223.489 136.83C224.569 136.83 225.539 136.98 226.399 137.28C227.259 137.58 228.079 138.03 228.859 138.63L227.689 140.37C226.969 139.91 226.279 139.57 225.619 139.35C224.979 139.13 224.299 139.02 223.579 139.02C222.679 139.02 221.969 139.21 221.449 139.59C220.929 139.95 220.669 140.45 220.669 141.09C220.669 141.73 220.909 142.23 221.389 142.59C221.889 142.95 222.779 143.3 224.059 143.64C225.819 144.08 227.129 144.68 227.989 145.44C228.869 146.2 229.309 147.24 229.309 148.56C229.309 150.12 228.699 151.31 227.479 152.13C226.279 152.95 224.809 153.36 223.069 153.36C220.669 153.36 218.679 152.67 217.099 151.29L218.569 149.61C219.909 150.63 221.389 151.14 223.009 151.14C224.049 151.14 224.869 150.93 225.469 150.51C226.089 150.07 226.399 149.48 226.399 148.74C226.399 148.2 226.289 147.77 226.069 147.45C225.849 147.11 225.469 146.82 224.929 146.58C224.389 146.32 223.599 146.05 222.559 145.77C220.879 145.33 219.659 144.74 218.899 144C218.159 143.26 217.789 142.32 217.789 141.18C217.789 140.36 218.029 139.62 218.509 138.96C219.009 138.28 219.689 137.76 220.549 137.4C221.429 137.02 222.409 136.83 223.489 136.83ZM243.56 149.31C243.56 149.95 243.67 150.43 243.89 150.75C244.11 151.05 244.44 151.28 244.88 151.44L244.25 153.36C243.43 153.26 242.77 153.03 242.27 152.67C241.77 152.31 241.4 151.75 241.16 150.99C240.1 152.57 238.53 153.36 236.45 153.36C234.89 153.36 233.66 152.92 232.76 152.04C231.86 151.16 231.41 150.01 231.41 148.59C231.41 146.91 232.01 145.62 233.21 144.72C234.43 143.82 236.15 143.37 238.37 143.37H240.8V142.2C240.8 141.08 240.53 140.28 239.99 139.8C239.45 139.32 238.62 139.08 237.5 139.08C236.34 139.08 234.92 139.36 233.24 139.92L232.55 137.91C234.51 137.19 236.33 136.83 238.01 136.83C239.87 136.83 241.26 137.29 242.18 138.21C243.1 139.11 243.56 140.4 243.56 142.08V149.31ZM237.08 151.29C238.66 151.29 239.9 150.47 240.8 148.83V145.2H238.73C235.81 145.2 234.35 146.28 234.35 148.44C234.35 149.38 234.58 150.09 235.04 150.57C235.5 151.05 236.18 151.29 237.08 151.29ZM254.988 136.83C255.928 136.83 256.788 136.97 257.568 137.25C258.348 137.51 259.098 137.94 259.818 138.54L258.498 140.28C257.938 139.88 257.388 139.59 256.848 139.41C256.328 139.21 255.748 139.11 255.108 139.11C253.828 139.11 252.828 139.62 252.108 140.64C251.408 141.66 251.058 143.17 251.058 145.17C251.058 147.17 251.408 148.65 252.108 149.61C252.808 150.55 253.808 151.02 255.108 151.02C255.728 151.02 256.298 150.93 256.818 150.75C257.338 150.55 257.918 150.24 258.558 149.82L259.818 151.62C258.378 152.78 256.768 153.36 254.988 153.36C252.848 153.36 251.158 152.64 249.918 151.2C248.698 149.76 248.088 147.77 248.088 145.23C248.088 143.55 248.368 142.08 248.928 140.82C249.488 139.56 250.278 138.58 251.298 137.88C252.338 137.18 253.568 136.83 254.988 136.83ZM271.534 152.28C270.494 153 269.314 153.36 267.994 153.36C266.654 153.36 265.604 152.98 264.844 152.22C264.104 151.44 263.734 150.32 263.734 148.86V139.32H260.974V137.19H263.734V133.62L266.494 133.29V137.19H270.244L269.944 139.32H266.494V148.74C266.494 149.56 266.634 150.16 266.914 150.54C267.214 150.9 267.704 151.08 268.384 151.08C269.004 151.08 269.704 150.87 270.484 150.45L271.534 152.28ZM277.154 137.19V153H274.394V137.19H277.154ZM275.744 129.6C276.324 129.6 276.794 129.78 277.154 130.14C277.514 130.5 277.694 130.95 277.694 131.49C277.694 132.03 277.514 132.48 277.154 132.84C276.794 133.18 276.324 133.35 275.744 133.35C275.184 133.35 274.724 133.18 274.364 132.84C274.004 132.48 273.824 132.03 273.824 131.49C273.824 130.95 274.004 130.5 274.364 130.14C274.724 129.78 275.184 129.6 275.744 129.6ZM288.801 136.83C291.021 136.83 292.741 137.57 293.961 139.05C295.201 140.53 295.821 142.54 295.821 145.08C295.821 146.72 295.541 148.17 294.981 149.43C294.421 150.67 293.611 151.64 292.551 152.34C291.491 153.02 290.231 153.36 288.771 153.36C286.551 153.36 284.821 152.62 283.581 151.14C282.341 149.66 281.721 147.65 281.721 145.11C281.721 143.47 282.001 142.03 282.561 140.79C283.121 139.53 283.931 138.56 284.991 137.88C286.051 137.18 287.321 136.83 288.801 136.83ZM288.801 139.05C286.061 139.05 284.691 141.07 284.691 145.11C284.691 149.13 286.051 151.14 288.771 151.14C291.491 151.14 292.851 149.12 292.851 145.08C292.851 141.06 291.501 139.05 288.801 139.05ZM307.82 136.83C309.26 136.83 310.38 137.26 311.18 138.12C312 138.98 312.41 140.16 312.41 141.66V153H309.65V142.05C309.65 140.93 309.44 140.14 309.02 139.68C308.6 139.22 307.98 138.99 307.16 138.99C306.32 138.99 305.58 139.23 304.94 139.71C304.3 140.19 303.7 140.88 303.14 141.78V153H300.38V137.19H302.75L302.99 139.53C303.55 138.69 304.24 138.03 305.06 137.55C305.9 137.07 306.82 136.83 307.82 136.83ZM322.248 136.83C323.328 136.83 324.298 136.98 325.158 137.28C326.018 137.58 326.838 138.03 327.618 138.63L326.448 140.37C325.728 139.91 325.038 139.57 324.378 139.35C323.738 139.13 323.058 139.02 322.338 139.02C321.438 139.02 320.728 139.21 320.208 139.59C319.688 139.95 319.428 140.45 319.428 141.09C319.428 141.73 319.668 142.23 320.148 142.59C320.648 142.95 321.538 143.3 322.818 143.64C324.578 144.08 325.888 144.68 326.748 145.44C327.628 146.2 328.068 147.24 328.068 148.56C328.068 150.12 327.458 151.31 326.238 152.13C325.038 152.95 323.568 153.36 321.828 153.36C319.428 153.36 317.438 152.67 315.858 151.29L317.328 149.61C318.668 150.63 320.148 151.14 321.768 151.14C322.808 151.14 323.628 150.93 324.228 150.51C324.848 150.07 325.158 149.48 325.158 148.74C325.158 148.2 325.048 147.77 324.828 147.45C324.608 147.11 324.228 146.82 323.688 146.58C323.148 146.32 322.358 146.05 321.318 145.77C319.638 145.33 318.418 144.74 317.658 144C316.918 143.26 316.548 142.32 316.548 141.18C316.548 140.36 316.788 139.62 317.268 138.96C317.768 138.28 318.448 137.76 319.308 137.4C320.188 137.02 321.168 136.83 322.248 136.83ZM173.607 172.83C175.627 172.83 177.107 173.55 178.047 174.99C178.987 176.43 179.457 178.46 179.457 181.08C179.457 183.56 178.917 185.56 177.837 187.08C176.757 188.6 175.227 189.36 173.247 189.36C171.487 189.36 170.107 188.76 169.107 187.56V195.06L166.347 195.39V173.19H168.717L168.927 175.32C169.507 174.52 170.207 173.91 171.027 173.49C171.847 173.05 172.707 172.83 173.607 172.83ZM172.587 187.11C175.187 187.11 176.487 185.1 176.487 181.08C176.487 177.04 175.297 175.02 172.917 175.02C172.137 175.02 171.427 175.25 170.787 175.71C170.147 176.17 169.587 176.76 169.107 177.48V185.19C169.507 185.81 170.007 186.29 170.607 186.63C171.207 186.95 171.867 187.11 172.587 187.11ZM191.03 172.83C191.59 172.83 192.11 172.89 192.59 173.01L192.08 175.71C191.6 175.59 191.14 175.53 190.7 175.53C189.72 175.53 188.93 175.89 188.33 176.61C187.73 177.33 187.26 178.45 186.92 179.97V189H184.16V173.19H186.53L186.8 176.4C187.22 175.22 187.79 174.33 188.51 173.73C189.23 173.13 190.07 172.83 191.03 172.83ZM200.764 172.83C202.984 172.83 204.704 173.57 205.924 175.05C207.164 176.53 207.784 178.54 207.784 181.08C207.784 182.72 207.504 184.17 206.944 185.43C206.384 186.67 205.574 187.64 204.514 188.34C203.454 189.02 202.194 189.36 200.734 189.36C198.514 189.36 196.784 188.62 195.544 187.14C194.304 185.66 193.684 183.65 193.684 181.11C193.684 179.47 193.964 178.03 194.524 176.79C195.084 175.53 195.894 174.56 196.954 173.88C198.014 173.18 199.284 172.83 200.764 172.83ZM200.764 175.05C198.024 175.05 196.654 177.07 196.654 181.11C196.654 185.13 198.014 187.14 200.734 187.14C203.454 187.14 204.814 185.12 204.814 181.08C204.814 177.06 203.464 175.05 200.764 175.05ZM219.603 172.83C221.623 172.83 223.103 173.55 224.043 174.99C224.983 176.43 225.453 178.46 225.453 181.08C225.453 183.56 224.913 185.56 223.833 187.08C222.753 188.6 221.223 189.36 219.243 189.36C217.483 189.36 216.103 188.76 215.103 187.56V195.06L212.343 195.39V173.19H214.713L214.923 175.32C215.503 174.52 216.203 173.91 217.023 173.49C217.843 173.05 218.703 172.83 219.603 172.83ZM218.583 187.11C221.183 187.11 222.483 185.1 222.483 181.08C222.483 177.04 221.293 175.02 218.913 175.02C218.133 175.02 217.423 175.25 216.783 175.71C216.143 176.17 215.583 176.76 215.103 177.48V185.19C215.503 185.81 216.003 186.29 216.603 186.63C217.203 186.95 217.863 187.11 218.583 187.11ZM242.096 180.63C242.096 181.09 242.076 181.56 242.036 182.04H231.956C232.076 183.78 232.516 185.06 233.276 185.88C234.036 186.7 235.016 187.11 236.216 187.11C236.976 187.11 237.676 187 238.316 186.78C238.956 186.56 239.626 186.21 240.326 185.73L241.526 187.38C239.846 188.7 238.006 189.36 236.006 189.36C233.806 189.36 232.086 188.64 230.846 187.2C229.626 185.76 229.016 183.78 229.016 181.26C229.016 179.62 229.276 178.17 229.796 176.91C230.336 175.63 231.096 174.63 232.076 173.91C233.076 173.19 234.246 172.83 235.586 172.83C237.686 172.83 239.296 173.52 240.416 174.9C241.536 176.28 242.096 178.19 242.096 180.63ZM239.366 179.82C239.366 178.26 239.056 177.07 238.436 176.25C237.816 175.43 236.886 175.02 235.646 175.02C233.386 175.02 232.156 176.68 231.956 180H239.366V179.82ZM253.373 172.83C253.933 172.83 254.453 172.89 254.933 173.01L254.423 175.71C253.943 175.59 253.483 175.53 253.043 175.53C252.063 175.53 251.273 175.89 250.673 176.61C250.073 177.33 249.603 178.45 249.263 179.97V189H246.503V173.19H248.873L249.143 176.4C249.563 175.22 250.133 174.33 250.853 173.73C251.573 173.13 252.413 172.83 253.373 172.83ZM261.226 189.36C260.206 189.36 259.396 189.06 258.796 188.46C258.216 187.84 257.926 186.98 257.926 185.88V166.83L260.686 166.5V185.82C260.686 186.26 260.756 186.58 260.896 186.78C261.056 186.98 261.316 187.08 261.676 187.08C262.056 187.08 262.396 187.02 262.696 186.9L263.416 188.82C262.756 189.18 262.026 189.36 261.226 189.36ZM272.902 189.09C272.282 190.93 271.412 192.38 270.292 193.44C269.192 194.52 267.612 195.17 265.552 195.39L265.252 193.23C266.292 193.05 267.122 192.79 267.742 192.45C268.362 192.11 268.852 191.67 269.212 191.13C269.592 190.61 269.942 189.9 270.262 189H269.332L264.022 173.19H266.962L271.192 186.99L275.332 173.19H278.182L272.902 189.09Z" fill="black"/>
<rect x="40" y="60" width="55" height="67" fill="white"/>
</svg>
